<mxfile host="app.diagrams.net" modified="2023-09-02T18:34:37.558Z" agent="Mozilla/5.0 (Windows NT 10.0; Win64; x64; rv:109.0) Gecko/20100101 Firefox/117.0" etag="kJwDfTfFvuDTHo2qWiuj" version="21.6.1" type="device">
  <diagram id="C5RBs43oDa-KdzZeNtuy" name="Page-1">
    <mxGraphModel dx="1434" dy="754" grid="1" gridSize="10" guides="1" tooltips="1" connect="1" arrows="1" fold="1" page="1" pageScale="1" pageWidth="827" pageHeight="1169" math="0" shadow="0">
      <root>
        <mxCell id="WIyWlLk6GJQsqaUBKTNV-0" />
        <mxCell id="WIyWlLk6GJQsqaUBKTNV-1" parent="WIyWlLk6GJQsqaUBKTNV-0" />
        <mxCell id="CcZW1RHWkV016jv-vr5Y-0" value="Builder" style="swimlane;whiteSpace=wrap;html=1;" vertex="1" parent="WIyWlLk6GJQsqaUBKTNV-1">
          <mxGeometry x="199" y="40" width="430" height="390" as="geometry" />
        </mxCell>
        <mxCell id="CcZW1RHWkV016jv-vr5Y-1" value="Director" style="swimlane;whiteSpace=wrap;html=1;" vertex="1" parent="CcZW1RHWkV016jv-vr5Y-0">
          <mxGeometry x="20" y="40" width="100" height="80" as="geometry" />
        </mxCell>
        <mxCell id="CcZW1RHWkV016jv-vr5Y-2" value="+construct()" style="text;html=1;align=center;verticalAlign=middle;resizable=0;points=[];autosize=1;strokeColor=none;fillColor=none;" vertex="1" parent="CcZW1RHWkV016jv-vr5Y-1">
          <mxGeometry y="28" width="90" height="30" as="geometry" />
        </mxCell>
        <mxCell id="CcZW1RHWkV016jv-vr5Y-3" value="&lt;div&gt;&amp;lt;&amp;lt;Interface&amp;gt;&amp;gt;&lt;/div&gt;&lt;div&gt;Builder&lt;/div&gt;" style="swimlane;whiteSpace=wrap;html=1;startSize=40;" vertex="1" parent="CcZW1RHWkV016jv-vr5Y-0">
          <mxGeometry x="240" y="40" width="170" height="80" as="geometry" />
        </mxCell>
        <mxCell id="CcZW1RHWkV016jv-vr5Y-4" value="+buildPart()" style="text;html=1;align=center;verticalAlign=middle;resizable=0;points=[];autosize=1;strokeColor=none;fillColor=none;" vertex="1" parent="CcZW1RHWkV016jv-vr5Y-3">
          <mxGeometry y="40" width="90" height="30" as="geometry" />
        </mxCell>
        <mxCell id="CcZW1RHWkV016jv-vr5Y-5" value="ConcreteBuilder" style="swimlane;whiteSpace=wrap;html=1;startSize=40;" vertex="1" parent="CcZW1RHWkV016jv-vr5Y-0">
          <mxGeometry x="240" y="160" width="170" height="80" as="geometry" />
        </mxCell>
        <mxCell id="CcZW1RHWkV016jv-vr5Y-6" value="&lt;div&gt;+buildPart()&lt;/div&gt;&lt;div&gt;+getResult()&lt;br&gt;&lt;/div&gt;" style="text;html=1;align=center;verticalAlign=middle;resizable=0;points=[];autosize=1;strokeColor=none;fillColor=none;" vertex="1" parent="CcZW1RHWkV016jv-vr5Y-5">
          <mxGeometry y="40" width="90" height="40" as="geometry" />
        </mxCell>
        <mxCell id="CcZW1RHWkV016jv-vr5Y-8" value="" style="endArrow=block;endSize=16;endFill=0;html=1;rounded=0;exitX=0.5;exitY=0;exitDx=0;exitDy=0;" edge="1" parent="CcZW1RHWkV016jv-vr5Y-0" source="CcZW1RHWkV016jv-vr5Y-5">
          <mxGeometry width="160" relative="1" as="geometry">
            <mxPoint x="324.65999999999997" y="180" as="sourcePoint" />
            <mxPoint x="324.65999999999997" y="120" as="targetPoint" />
          </mxGeometry>
        </mxCell>
        <mxCell id="CcZW1RHWkV016jv-vr5Y-10" value="" style="endArrow=diamondThin;endFill=1;endSize=24;html=1;rounded=0;entryX=1;entryY=0.5;entryDx=0;entryDy=0;exitX=-0.008;exitY=0.069;exitDx=0;exitDy=0;exitPerimeter=0;" edge="1" parent="CcZW1RHWkV016jv-vr5Y-0" target="CcZW1RHWkV016jv-vr5Y-1">
          <mxGeometry width="160" relative="1" as="geometry">
            <mxPoint x="239.27999999999997" y="80.07000000000005" as="sourcePoint" />
            <mxPoint x="120" y="78" as="targetPoint" />
          </mxGeometry>
        </mxCell>
        <mxCell id="CcZW1RHWkV016jv-vr5Y-11" value="&lt;div align=&quot;left&quot;&gt;Тип- порождающий;&lt;/div&gt;&lt;div align=&quot;left&quot;&gt;Что это- Разделяет создание сложного объекта и инициализацию его состояния так, что одинаковый процесс построения может создавать разные объекты.&lt;br&gt;&lt;/div&gt;" style="text;html=1;strokeColor=none;fillColor=none;align=left;verticalAlign=middle;whiteSpace=wrap;rounded=0;" vertex="1" parent="CcZW1RHWkV016jv-vr5Y-0">
          <mxGeometry x="40" y="280" width="340" height="80" as="geometry" />
        </mxCell>
      </root>
    </mxGraphModel>
  </diagram>
</mxfile>
